<svg width="512" height="512" viewBox="0 0 512 512" fill="none" xmlns="http://www.w3.org/2000/svg">
  <rect x="32" y="32" width="448" height="448" rx="96" fill="#FAFAFA"/>
  <path d="M186 210C186 170.235 218.235 138 258 138C297.765 138 330 170.235 330 210V278C330 284.627 332.634 290.983 337.314 295.669L346.343 304.706C352.643 311.012 348.177 321.794 339.265 321.794H176.735C167.823 321.794 163.357 311.012 169.657 304.706L178.686 295.669C183.366 290.983 186 284.627 186 278V210Z" fill="#1C1C1E"/>
  <path d="M235 122C235 109.297 245.297 99 258 99C270.703 99 281 109.297 281 122V132.5H235V122Z" fill="#1C1C1E"/>
  <rect x="232" y="334" width="52" height="20" rx="10" fill="#1C1C1E"/>
  <path d="M283.5 139C330.377 149.492 365 191.363 365 241.5V286" stroke="#1C1C1E" stroke-width="24" stroke-linecap="round"/>
  <path d="M154 158L356 360" stroke="#1C1C1E" stroke-width="28" stroke-linecap="round"/>
</svg>
